<svg xmlns="http://www.w3.org/2000/svg"  viewBox="0 0 128 128" width="128px" height="128px"><path fill="#454B54" d="M81.9 126H29c-1.7 0-3-1.3-3-3s1.3-3 3-3h52.9c1.7 0 3 1.3 3 3S83.6 126 81.9 126zM14 126c-.8 0-1.6-.3-2.1-.9-.6-.6-.9-1.3-.9-2.1s.3-1.6.9-2.1c1.1-1.1 3.1-1.1 4.2 0 .6.6.9 1.3.9 2.1s-.3 1.6-.9 2.1C15.6 125.7 14.8 126 14 126z"/><path fill="#91D2C0" d="M44.6,115h38.8c2.1,0,3.9-1.7,4-3.8L90,62.9H38l2.6,48.3C40.7,113.3,42.4,115,44.6,115z"/><path fill="#6EC7B0" d="M35.1,57.5L35.1,57.5c19-4.6,38.8-4.6,57.7,0l0,0v5.4H35.1V57.5z"/><path fill="#49A086" d="M87.2,62.9h-4.7H38l0.2,8.7h4.2c21.6,0,38.7,18.1,37.5,39.6l0,0c-0.1,2.1-1.9,3.8-4,3.8h7.5c2.1,0,3.9-1.7,4-3.8l2.2-39.6h0.3l0.2-8.7h2.8H87.2z"/><path fill="#454B54" d="M70 102.1c-1.7 0-3-1.3-3-3v-20c0-1.7 1.3-3 3-3s3 1.3 3 3v20C73 100.7 71.7 102.1 70 102.1zM58 102.1c-1.7 0-3-1.3-3-3v-20c0-1.7 1.3-3 3-3s3 1.3 3 3v20C61 100.7 59.7 102.1 58 102.1z"/><path fill="#454B54" d="M83.4,118H44.6c-3.7,0-6.8-2.9-7-6.6L35,63.1c0-0.8,0.3-1.6,0.8-2.2c0.6-0.6,1.4-0.9,2.2-0.9H90c0.8,0,1.6,0.3,2.2,0.9c0.6,0.6,0.9,1.4,0.8,2.2l-2.6,48.3C90.2,115.1,87.1,118,83.4,118z M41.1,65.9l2.4,45.1c0,0.5,0.5,1,1,1h38.8c0.5,0,1-0.4,1-1l2.4-45.1H41.1z"/><path fill="#454B54" d="M83.4 126c-1.7 0-3-1.3-3-3v-8c0-1.7 1.3-3 3-3s3 1.3 3 3v8C86.4 124.7 85.1 126 83.4 126zM45.3 122c-1.7 0-3-1.3-3-3v-4c0-1.7 1.3-3 3-3s3 1.3 3 3v4C48.3 120.7 46.9 122 45.3 122zM92.9 65.9c-1.7 0-3-1.3-3-3v-3c-17-3.8-34.8-3.8-51.7 0v3c0 1.7-1.3 3-3 3s-3-1.3-3-3v-5.4c0-1.4.9-2.6 2.3-2.9 19.4-4.7 39.8-4.7 59.2 0 1.3.3 2.3 1.5 2.3 2.9v5.4C95.9 64.6 94.5 65.9 92.9 65.9z"/></svg>